<svg width="35" height="29" viewBox="0 0 35 29" fill="none" xmlns="http://www.w3.org/2000/svg">
<path d="M31.5579 0H2.70207C1.20976 0 0 1.20769 0 2.69746C0 4.18722 1.20976 5.39491 2.70207 5.39491H31.5579C33.0503 5.39491 34.26 4.18722 34.26 2.69746C34.26 1.20769 33.0503 0 31.5579 0Z" fill="#2A4776"/>
<path d="M31.5579 11.6936H2.70207C1.20976 11.6936 0 12.9013 0 14.391C0 15.8808 1.20976 17.0885 2.70207 17.0885H31.5579C33.0503 17.0885 34.26 15.8808 34.26 14.391C34.26 12.9013 33.0503 11.6936 31.5579 11.6936Z" fill="#2A4776"/>
<path d="M31.5579 23.4794H2.70207C1.20976 23.4794 0 24.6871 0 26.1769C0 27.6666 1.20976 28.8743 2.70207 28.8743H31.5579C33.0503 28.8743 34.26 27.6666 34.26 26.1769C34.26 24.6871 33.0503 23.4794 31.5579 23.4794Z" fill="#2A4776"/>
</svg>
