<svg width="27" height="30" viewBox="0 0 27 30" fill="none" xmlns="http://www.w3.org/2000/svg">
<path d="M26.0157 26.5532L18.7757 17.7132C22.4357 13.4432 22.1957 7.24317 18.3957 3.27317C14.6257 -0.656833 8.4457 -1.10684 4.1357 2.24316C-0.184299 5.60316 -1.2943 11.7232 1.6357 16.3832C4.5157 20.9632 10.4557 22.7532 15.4757 20.2632L22.8657 29.2532C23.2557 29.7332 23.9757 29.5532 24.3457 29.2532L25.8457 28.0132C26.2557 27.6632 26.4057 27.0132 26.0257 26.5532H26.0157ZM10.3157 18.3532C6.11572 18.1232 2.89572 14.5432 3.12572 10.3432C3.35572 6.14317 6.9357 2.92316 11.1357 3.15316C15.3357 3.38316 18.5557 6.96317 18.3257 11.1632C18.0957 15.3632 14.5157 18.5832 10.3157 18.3532Z" fill="#2A4776"/>
</svg>
