<svg width="29" height="32" viewBox="0 0 29 32" fill="none" xmlns="http://www.w3.org/2000/svg">
<path d="M24.74 18.55C26.57 18.55 28.06 17.07 28.06 15.23V6.8C28.06 4.97 26.58 3.48 24.74 3.48H7.44C7.41 2.64 7.38001 1.79 7.35001 0.949999C7.33001 0.839999 7.28001 0.61 7.10001 0.4C6.80001 0.0499996 6.39 0.01 6.31 0H1.13C0.500005 0 0 0.509999 0 1.13C0 1.75 0.510005 2.26 1.13 2.26H4.85001V22.17C4.85001 23.32 5.78002 24.25 6.93002 24.25H25.86C27.13 24.32 28.07 23.31 27.99 22.36C27.93 21.63 27.28 20.95 26.4 20.79H8.07001C8.09001 20.04 8.11 19.29 8.13 18.55H24.73H24.74Z" fill="#2A4776"/>
<path d="M8.99005 30.84C10.4812 30.84 11.69 29.6312 11.69 28.14C11.69 26.6488 10.4812 25.44 8.99005 25.44C7.49888 25.44 6.29004 26.6488 6.29004 28.14C6.29004 29.6312 7.49888 30.84 8.99005 30.84Z" fill="#2A4776"/>
<path d="M22.4099 31.12C23.9011 31.12 25.11 29.9112 25.11 28.42C25.11 26.9288 23.9011 25.72 22.4099 25.72C20.9188 25.72 19.71 26.9288 19.71 28.42C19.71 29.9112 20.9188 31.12 22.4099 31.12Z" fill="#2A4776"/>
</svg>
