<svg width="176" height="43" viewBox="0 0 176 43" fill="none" xmlns="http://www.w3.org/2000/svg">
<path d="M7.49863 18.9437C6.66892 18.1179 5.56652 17.666 4.39791 17.666H4.38622C1.9594 17.6738 -0.0077677 19.6488 2.30612e-05 22.0756C0.00781382 24.4946 1.97888 26.4579 4.39401 26.4579H4.4057C5.58211 26.4579 6.6845 25.9943 7.51421 25.1607C8.34393 24.3271 8.79579 23.2208 8.7919 22.0483C8.7919 20.8719 8.32835 19.7695 7.49474 18.9398L7.49863 18.9437Z" fill="white"/>
<path d="M172.655 11.9905C172.23 11.9476 171.814 11.9866 171.416 12.08C171.292 11.4724 171.023 10.8959 170.618 10.4011C169.959 9.59869 169.032 9.10398 168 8.9988C166.333 8.83909 164.814 9.7545 164.128 11.1802C163.731 11.0049 163.306 10.8959 162.87 10.8647C162.671 10.3544 162.371 9.88695 161.978 9.48572C161.21 8.70665 160.19 8.27036 159.095 8.26257H159.06C157.915 8.26257 156.879 8.73781 156.135 9.5013C156.03 9.49351 155.924 9.48572 155.819 9.48183H155.784C155.469 9.48183 155.161 9.51689 154.865 9.58311C154.362 8.76118 153.505 7.84577 152.045 7.19524C151.063 6.76285 149.844 6.48238 148.204 6.31878C146.895 6.18633 145.161 6.12011 143.05 6.12011C141.067 6.12011 139.408 6.18633 138.126 6.31878C136.557 6.48238 135.376 6.73948 134.414 7.13291C134.266 7.19524 134.122 7.26146 133.982 7.32768C133.974 6.10843 133.67 5.00603 133.074 4.05946C132.365 2.922 131.251 2.10008 129.763 1.61705C128.863 1.3249 127.765 1.13792 126.312 1.03275C125.124 0.947047 123.55 0.904197 121.629 0.904197C119.709 0.904197 118.174 0.947047 116.986 1.03275C115.529 1.13792 114.435 1.3249 113.527 1.61705C112.366 1.9988 111.435 2.58311 110.754 3.36218C110.711 2.76229 110.516 2.1663 110.161 1.63263C109.624 0.822394 108.806 0.26925 107.851 0.0744811C106.901 -0.120288 105.931 0.0705857 105.121 0.604253C104.318 1.13402 103.773 1.94037 103.57 2.87916C103.2 2.99602 102.846 3.16352 102.515 3.38166C101.58 4.00103 100.941 4.9476 100.719 6.0461C100.668 6.29151 100.645 6.53692 100.637 6.78233H99.8309C99.7063 6.49796 99.5738 6.2175 99.4219 5.94093C98.4519 4.16074 96.8899 2.7584 94.7825 1.76508C92.9244 0.892511 90.5054 0.452333 87.5916 0.452333C85.4414 0.452333 83.6534 0.615939 82.2744 0.93536C80.3618 1.37943 78.8543 2.21305 77.7908 3.42061C76.7858 4.55806 76.1314 5.99936 75.847 7.70164C75.6367 8.94816 75.4887 10.4245 75.3991 12.0878C75.3991 12.119 75.3991 12.158 75.3952 12.1891C75.3406 12.0878 75.29 11.9866 75.2355 11.8853C74.1603 10.035 72.4892 8.63263 70.265 7.72111C68.3952 6.95372 65.9917 6.56808 63.1208 6.56808C61.3406 6.56808 59.8565 6.68105 58.7074 6.89919C57.0285 7.22251 55.7274 7.83408 54.7302 8.76508C54.2744 9.19357 53.8927 9.68828 53.5771 10.2414C53.285 9.47793 52.9422 8.7495 52.541 8.06001C51.0529 5.50464 49.0156 3.52968 46.4875 2.18578C44.0412 0.884721 41.3145 0.226401 38.3813 0.226401C35.6428 0.226401 33.0991 0.806813 30.8047 1.95205C29.9984 1.58978 29.1141 1.39502 28.2143 1.39502H28.1987C25.4914 1.40281 23.1893 3.12456 22.3011 5.52801C21.4558 4.79568 20.3924 4.39446 19.2627 4.39446H19.251C18.0084 4.39446 16.8398 4.88528 15.9633 5.76563C15.3401 6.39279 14.9233 7.16407 14.7324 8.00548C14.2494 7.78734 13.7157 7.66658 13.1548 7.66658H13.1431C11.0084 7.67437 9.27886 9.41171 9.28665 11.5464C9.28665 12.3917 9.56712 13.1747 10.0307 13.8096C9.79695 13.9732 9.57491 14.1524 9.36846 14.3588C8.49589 15.2353 8.01676 16.4 8.02065 17.6349C8.02455 19.306 8.92438 20.7706 10.2605 21.5809C10.0735 21.7172 9.89044 21.8652 9.72293 22.0327C8.94775 22.8118 8.51926 23.8519 8.52316 24.9504C8.53095 27.2214 10.3774 29.06 12.6484 29.06H12.6562C13.7586 29.06 14.7908 28.6237 15.566 27.8447C16.3412 27.0656 16.7697 26.0255 16.7658 24.927C16.7658 24.5609 16.7113 24.1986 16.6178 23.8558C17.3228 24.5336 18.2149 25.0361 19.2355 25.262C19.6328 25.3477 20.034 25.3906 20.4274 25.3906C21.4675 25.3906 22.4881 25.0945 23.384 24.5219C23.4152 24.5024 23.4464 24.4752 23.4775 24.4557C23.7151 25.0439 23.9722 25.6204 24.2722 26.1696C25.7096 28.8185 27.704 30.8947 30.201 32.3399C32.6667 33.7656 35.413 34.4902 38.3696 34.4902C41.3262 34.4902 44.1308 33.7578 46.6083 32.3166C48.9144 30.9765 50.7958 29.099 52.2215 26.7501C52.2371 27.3616 52.2566 27.9888 52.28 28.6393C52.3501 30.5792 52.4864 32.4568 52.6851 34.2565C53.0162 36.9404 54.2394 38.3933 55.1976 39.1374C56.4286 40.0917 57.9633 40.5981 59.6461 40.5981C61.6951 40.5981 63.4519 39.7528 64.5855 38.2103C64.9361 37.735 65.2204 37.2208 65.4347 36.6755C65.9839 37.5948 66.6423 38.3856 67.3902 39.0361C68.625 40.1112 70.1948 40.676 71.9322 40.676C73.9889 40.676 75.7419 39.8814 76.9962 38.3817C77.8687 37.3377 78.8114 35.538 78.3401 32.8814L78.3284 32.8152C78.2817 32.5814 78.2232 32.3438 78.1492 32.1023C78.7452 32.6477 79.4464 33.1034 80.2488 33.454C81.246 33.8903 82.4731 34.1941 83.8988 34.3577C85.0791 34.4941 86.5438 34.5642 88.2538 34.5642C91.187 34.5642 93.684 34.0734 95.6706 33.1073C97.3651 32.2815 98.7324 31.222 99.7569 29.9482C99.7686 30.7896 99.7881 31.5609 99.8153 32.2503C99.8737 33.8435 99.9633 35.1407 100.084 36.099C100.263 37.5558 100.563 38.5725 101.046 39.3867C102.192 41.3227 104.217 42.4368 106.609 42.4368C109.001 42.4368 111.17 41.272 112.214 39.3127C112.69 38.479 112.993 37.4662 113.173 36.1301C113.297 35.1913 113.379 33.9215 113.426 32.3438C113.465 30.848 113.488 28.9237 113.488 26.6176C113.488 24.3115 113.469 22.469 113.426 20.9927C113.379 19.4151 113.297 18.1919 113.173 17.2531C113.153 17.0895 113.138 16.9454 113.122 16.8051C113.036 16.0144 112.849 14.3394 111.482 13.163C111.556 12.9487 111.622 12.7306 111.669 12.5046C111.681 12.454 111.685 12.3995 111.692 12.3488C111.696 12.3527 111.704 12.3566 111.712 12.3605C112.67 13.0188 113.776 13.4045 114.941 13.4902C114.941 13.9265 114.933 14.3939 114.929 14.8886L114.851 21.7484C114.836 22.917 114.832 23.996 114.832 24.9777V27.3032C114.832 28.7951 115.066 30.0339 115.541 31.0934C116.145 32.4373 117.103 33.4852 118.314 34.1279C119.323 34.6616 120.465 34.9342 121.707 34.9342C122.95 34.9342 124.146 34.646 125.151 34.0773C126.316 33.4189 127.235 32.3633 127.804 31.0233C128.248 29.9832 128.462 28.7679 128.462 27.3071C128.462 26.7111 128.454 25.9164 128.442 24.927C128.431 23.9765 128.423 22.9365 128.423 21.8029C128.423 20.6694 128.407 19.4579 128.38 18.2114C128.353 17.0934 128.341 15.9949 128.341 14.947C128.341 14.4329 128.341 13.9498 128.337 13.5019C129.058 13.4551 129.759 13.2915 130.417 13.0188C130.429 14.7055 131.091 16.213 132.283 17.2648C133.397 18.2542 134.878 18.7334 136.814 18.7334H138.345C138.01 19.2008 137.647 19.7033 137.262 20.237C135.933 22.0678 134.839 23.5792 133.978 24.7712C133.082 26.0099 132.357 27.0656 131.82 27.9031C131.177 28.9081 130.721 29.7729 130.425 30.548C130.047 31.5258 129.856 32.5113 129.856 33.4813C129.856 34.6421 130.137 35.7172 130.69 36.6755C131.364 37.8441 132.459 38.7206 133.939 39.2815C134.882 39.636 136.035 39.8775 137.569 40.0372C138.855 40.1696 140.538 40.2359 142.571 40.2359C144.604 40.2359 146.408 40.1619 147.74 40.0138C149.318 39.8385 150.498 39.5814 151.464 39.2036C152.243 38.8997 152.909 38.5063 153.474 38.035C153.836 38.183 154.222 38.2804 154.623 38.3193C154.76 38.3349 154.9 38.3388 155.036 38.3388C155.979 38.3388 156.883 38.0155 157.619 37.4117C158.258 36.8897 158.714 36.2002 158.943 35.4251C159.454 36.7495 160.673 37.7467 162.176 37.8947C162.305 37.9064 162.437 37.9142 162.566 37.9142C163.458 37.9142 164.319 37.6104 165.016 37.0339C165.745 36.434 166.22 35.6082 166.376 34.6927C166.52 34.7239 166.664 34.7512 166.816 34.7668C166.941 34.7784 167.065 34.7862 167.186 34.7862C169.075 34.7862 170.7 33.3488 170.89 31.4284C170.988 30.439 170.696 29.469 170.065 28.7016C169.434 27.9304 168.542 27.4551 167.552 27.3538C165.647 27.1669 163.929 28.4562 163.54 30.291C163.345 30.2403 163.146 30.2014 162.94 30.178C162.34 30.1196 161.756 30.2092 161.226 30.4039C160.856 28.6237 159.274 27.2798 157.385 27.2798C156.213 27.2798 155.161 27.7979 154.444 28.6159C153.86 28.2069 153.166 27.9342 152.407 27.8602C152.22 27.8408 152.037 27.833 151.85 27.8408C151.129 27.5954 150.319 27.4785 149.404 27.4785C148.893 27.4785 148.387 27.4785 147.877 27.4785C148.009 27.2993 148.149 27.1162 148.289 26.9253L148.317 26.8903C149.591 25.1413 150.666 23.661 151.538 22.4534C152.465 21.1758 153.217 20.0656 153.778 19.1502C154.039 18.7217 154.269 18.3166 154.475 17.9231C154.88 18.0517 155.301 18.1179 155.737 18.1218H155.772C156.91 18.1218 157.985 17.6816 158.799 16.8831C158.939 16.7467 159.06 16.5987 159.181 16.4507C159.828 17.6816 161.117 18.5035 162.566 18.5035C162.679 18.5035 162.796 18.4996 162.913 18.4879C163.929 18.3945 164.849 17.9114 165.503 17.1285C165.694 16.8986 165.854 16.6454 165.986 16.3844C166.368 16.5597 166.785 16.6805 167.225 16.7272C167.353 16.7389 167.486 16.7467 167.614 16.7467C167.973 16.7467 168.323 16.6961 168.662 16.5987C168.795 17.1285 169.036 17.631 169.395 18.0634C170.026 18.8346 170.918 19.3099 171.907 19.4112C172.032 19.4228 172.153 19.4306 172.277 19.4306C174.166 19.4306 175.791 17.9932 175.982 16.0689C176.184 14.0238 174.685 12.2008 172.643 11.9982L172.655 11.9905ZM13.1431 9.55584H13.147C13.147 9.55584 13.1703 9.55584 13.182 9.55584H13.1041C13.1041 9.55584 13.1275 9.55584 13.1392 9.55584H13.1431ZM165.082 30.8402C165.082 30.8402 165.082 30.8285 165.082 30.8246V31.0817C165.082 31.0817 165.075 31.0739 165.071 31.07C165.071 30.9921 165.071 30.9181 165.079 30.8402H165.082Z" fill="white"/>
<path d="M107.123 4.35553C107.519 4.35553 107.84 4.03463 107.84 3.63878C107.84 3.24293 107.519 2.92203 107.123 2.92203C106.727 2.92203 106.406 3.24293 106.406 3.63878C106.406 4.03463 106.727 4.35553 107.123 4.35553Z" fill="#CBE4F1"/>
<path d="M104.825 8.16133C105.53 8.16133 106.102 7.58929 106.102 6.88364C106.102 6.178 105.53 5.60596 104.825 5.60596C104.119 5.60596 103.547 6.178 103.547 6.88364C103.547 7.58929 104.119 8.16133 104.825 8.16133Z" fill="#CBE4F1"/>
<path d="M4.39786 23.5403C5.21322 23.5403 5.87421 22.8793 5.87421 22.0639C5.87421 21.2486 5.21322 20.5876 4.39786 20.5876C3.58249 20.5876 2.92151 21.2486 2.92151 22.0639C2.92151 22.8793 3.58249 23.5403 4.39786 23.5403Z" fill="#F4ECD0"/>
<path d="M12.6444 26.1346C13.307 26.1346 13.8441 25.5974 13.8441 24.9348C13.8441 24.2722 13.307 23.735 12.6444 23.735C11.9817 23.735 11.4446 24.2722 11.4446 24.9348C11.4446 25.5974 11.9817 26.1346 12.6444 26.1346Z" fill="#F2C7CF"/>
<path d="M20.4236 22.4651C21.8521 22.4651 23.0101 21.3071 23.0101 19.8786C23.0101 18.4501 21.8521 17.2921 20.4236 17.2921C18.9951 17.2921 17.837 18.4501 17.837 19.8786C17.837 21.3071 18.9951 22.4651 20.4236 22.4651Z" fill="#FCC292"/>
<path d="M12.6444 19.3255C13.5867 19.3255 14.3506 18.5616 14.3506 17.6193C14.3506 16.677 13.5867 15.9131 12.6444 15.9131C11.7021 15.9131 10.9382 16.677 10.9382 17.6193C10.9382 18.5616 11.7021 19.3255 12.6444 19.3255Z" fill="#CAE3F0"/>
<path d="M20.9884 9.04166C20.9884 9.99603 20.2171 10.7751 19.2627 10.779C18.3084 10.779 17.5293 10.0077 17.5254 9.05335C17.5254 8.09898 18.2967 7.3199 19.251 7.31601C20.2054 7.31601 20.9845 8.08729 20.9884 9.04166Z" fill="#E7CAE1"/>
<path d="M21.7557 14.8029C22.3042 14.8029 22.749 14.3582 22.749 13.8096C22.749 13.261 22.3042 12.8163 21.7557 12.8163C21.2071 12.8163 20.7623 13.261 20.7623 13.8096C20.7623 14.3582 21.2071 14.8029 21.7557 14.8029Z" fill="#ECDFAD"/>
<path d="M13.1469 12.4774C13.6697 12.4774 14.0935 12.0536 14.0935 11.5308C14.0935 11.008 13.6697 10.5842 13.1469 10.5842C12.6241 10.5842 12.2003 11.008 12.2003 11.5308C12.2003 12.0536 12.6241 12.4774 13.1469 12.4774Z" fill="#FCC292"/>
<path d="M155.78 15.1925C156.55 15.1925 157.175 14.5681 157.175 13.7979C157.175 13.0277 156.55 12.4034 155.78 12.4034C155.01 12.4034 154.386 13.0277 154.386 13.7979C154.386 14.5681 155.01 15.1925 155.78 15.1925Z" fill="#E6D38A"/>
<path d="M159.06 13.5213C159.706 13.5213 160.229 12.9981 160.229 12.3527C160.229 11.7073 159.706 11.1841 159.06 11.1841C158.415 11.1841 157.891 11.7073 157.891 12.3527C157.891 12.9981 158.415 13.5213 159.06 13.5213Z" fill="#E7CAE1"/>
<path d="M162.574 15.5781C163.073 15.5781 163.478 15.1735 163.478 14.6744C163.478 14.1753 163.073 13.7707 162.574 13.7707C162.075 13.7707 161.67 14.1753 161.67 14.6744C161.67 15.1735 162.075 15.5781 162.574 15.5781Z" fill="#FCC292"/>
<path d="M155.032 35.4095C155.678 35.4095 156.201 34.8863 156.201 34.2409C156.201 33.5955 155.678 33.0723 155.032 33.0723C154.387 33.0723 153.864 33.5955 153.864 34.2409C153.864 34.8863 154.387 35.4095 155.032 35.4095Z" fill="#B4D9EB"/>
<path d="M162.566 34.9849C163.095 34.9849 163.524 34.5559 163.524 34.0267C163.524 33.4974 163.095 33.0684 162.566 33.0684C162.037 33.0684 161.608 33.4974 161.608 34.0267C161.608 34.5559 162.037 34.9849 162.566 34.9849Z" fill="#EDD6E8"/>
<path d="M157.393 32.1919C157.946 32.1919 158.394 31.7437 158.394 31.1908C158.394 30.6379 157.946 30.1897 157.393 30.1897C156.84 30.1897 156.392 30.6379 156.392 31.1908C156.392 31.7437 156.84 32.1919 157.393 32.1919Z" fill="#FCC292"/>
<path d="M167.19 31.8491C167.633 31.8491 167.992 31.4899 167.992 31.0467C167.992 30.6035 167.633 30.2442 167.19 30.2442C166.747 30.2442 166.387 30.6035 166.387 31.0467C166.387 31.4899 166.747 31.8491 167.19 31.8491Z" fill="#F4ECD0"/>
<path d="M41.5676 10.6076C40.6366 10.0428 39.5615 9.75455 38.3734 9.75455C37.1853 9.75455 36.1257 10.0389 35.2259 10.6037C34.3261 11.1686 33.6132 11.9983 33.1029 13.0773C32.5848 14.1797 32.3199 15.5509 32.3199 17.1558C32.3199 18.7607 32.577 20.1513 33.0912 21.3316C33.5898 22.4885 34.3027 23.3962 35.2064 24.0194C36.1024 24.6427 37.1658 24.9543 38.3734 24.9543C39.5809 24.9543 40.695 24.6388 41.6026 24.0155C42.522 23.3884 43.2543 22.4808 43.7802 21.3199C44.3138 20.1396 44.5865 18.7373 44.5865 17.1519C44.5865 15.5665 44.3099 14.1797 43.7685 13.0812C43.2348 12.0022 42.4947 11.1686 41.5676 10.6037V10.6076ZM43.2854 21.0979C42.8024 22.1652 42.1324 22.9988 41.2988 23.5715C40.4808 24.1324 39.4991 24.4129 38.3773 24.4129C37.2554 24.4129 36.3244 24.1324 35.522 23.5754C34.7039 23.0066 34.0534 22.1808 33.5976 21.1174C33.1146 20.0033 32.8731 18.6711 32.8731 17.1597C32.8731 15.6483 33.1185 14.3394 33.6015 13.311C34.0651 12.3294 34.7117 11.5737 35.522 11.0673C36.3361 10.557 37.2982 10.2999 38.3812 10.2999C39.4641 10.2999 40.4496 10.5609 41.291 11.0751C42.1285 11.5854 42.7985 12.345 43.2854 13.3305C43.7918 14.3511 44.045 15.6405 44.045 17.1597C44.045 18.6789 43.7918 19.9916 43.2893 21.1018L43.2854 21.0979Z" fill="#2B4877"/>
<path d="M50.0088 9.53248C48.7974 7.45624 47.1496 5.85134 45.1084 4.76453C43.0906 3.68941 40.8235 3.14795 38.3733 3.14795C35.9231 3.14795 33.6638 3.70109 31.6694 4.7918C29.6555 5.89419 28.035 7.50299 26.8547 9.57922C25.6783 11.6438 25.0823 14.1797 25.0823 17.1168C25.0823 20.0539 25.6744 22.621 26.843 24.7712C28.0194 26.9409 29.6438 28.6354 31.6655 29.8079C33.6794 30.9727 35.9348 31.5648 38.3733 31.5648C40.8118 31.5648 43.114 30.9649 45.1435 29.7885C47.1769 28.6082 48.8168 26.9098 50.0205 24.7439C51.2203 22.5898 51.828 20.0111 51.828 17.0778C51.828 14.1446 51.2164 11.6009 50.0088 9.53248ZM49.5453 24.4791C48.3883 26.5592 46.8185 28.1836 44.8708 29.3171C42.927 30.4468 40.7417 31.0194 38.3772 31.0194C36.0127 31.0194 33.8742 30.4546 31.942 29.3366C30.006 28.2186 28.4518 26.5943 27.326 24.5141C26.2003 22.4457 25.6315 19.9565 25.6315 17.1207C25.6315 14.2848 26.2041 11.8347 27.3338 9.8558C28.4635 7.86915 30.0138 6.32658 31.9381 5.27483C33.8508 4.22697 36.0205 3.6972 38.3811 3.6972C40.7417 3.6972 42.9192 4.21918 44.8591 5.25146C46.8107 6.28763 48.3883 7.82241 49.5453 9.80905C50.7022 11.7918 51.2904 14.2381 51.2904 17.0778C51.2904 19.9176 50.7061 22.4067 49.5531 24.4791H49.5453Z" fill="#2B4877"/>
<path d="M38.3734 30.474C36.1219 30.474 34.069 29.9365 32.2109 28.8652C30.3567 27.794 28.8843 26.2553 27.8014 24.2531C26.7146 22.2509 26.1731 19.8747 26.1731 17.1168C26.1731 14.3588 26.7146 12.0294 27.8014 10.1207C28.8882 8.21194 30.3528 6.75506 32.1954 5.75006C34.0379 4.74505 36.0985 4.23865 38.3773 4.23865C40.6561 4.23865 42.7285 4.73726 44.5982 5.73058C46.468 6.7239 47.9561 8.17298 49.0701 10.0817C50.1842 11.9905 50.7413 14.3238 50.7413 17.0778C50.7413 19.8319 50.1842 22.2119 49.0701 24.2142C47.9561 26.2164 46.468 27.759 44.5982 28.8458C42.7285 29.9326 40.6561 30.474 38.3773 30.474H38.3734ZM38.3734 25.5035C39.7251 25.5035 40.9054 25.1607 41.9104 24.4713C42.9193 23.7818 43.7062 22.8079 44.2749 21.5497C44.8437 20.2915 45.128 18.8269 45.128 17.1557C45.128 15.4846 44.8359 14.0238 44.2555 12.8435C43.6712 11.6632 42.8726 10.7634 41.852 10.1402C40.8314 9.51689 39.6706 9.20526 38.3734 9.20526C37.0763 9.20526 35.9271 9.51689 34.9338 10.1402C33.9405 10.7634 33.1653 11.6632 32.6083 12.8435C32.0512 14.0238 31.7747 15.4612 31.7747 17.1557C31.7747 18.8502 32.0473 20.2915 32.5888 21.5497C33.1302 22.8079 33.9015 23.7818 34.8949 24.4713C35.8882 25.1607 37.049 25.5035 38.3734 25.5035Z" fill="#B4D9EB"/>
<path d="M66.3228 15.9598C65.7151 15.5469 64.6477 15.3366 63.1519 15.3366C62.5949 15.3366 62.3534 15.4067 62.2599 15.4495C62.2599 15.4495 62.1625 15.5197 62.1002 15.8819C62.0261 16.2987 61.9911 16.9999 61.9911 17.9738C61.9911 19.1151 62.0223 19.9565 62.0846 20.4707C62.1469 21.0005 62.2832 21.1056 62.2832 21.1056C62.3689 21.1563 62.5871 21.2459 63.113 21.2459C64.2115 21.2459 65.0645 21.094 65.645 20.7901C66.202 20.5019 66.5798 20.1357 66.7941 19.6721C67.0239 19.1774 67.1408 18.6477 67.1408 18.0945C67.1408 17.0311 66.8759 16.3338 66.3267 15.9637L66.3228 15.9598ZM66.2955 19.4423C66.1319 19.7929 65.8358 20.0734 65.3879 20.3071C64.8931 20.5642 64.1024 20.7005 63.1091 20.7005C62.8948 20.7005 62.7546 20.6849 62.6689 20.6694C62.6533 20.6109 62.6377 20.5252 62.6221 20.4084C62.5637 19.9175 62.5325 19.0995 62.5325 17.9776C62.5325 16.8558 62.5871 16.2442 62.6338 15.9832C62.6377 15.9598 62.6416 15.9404 62.6455 15.9209C62.7507 15.9053 62.9143 15.8897 63.148 15.8897C64.8737 15.8897 65.6566 16.178 66.0111 16.4156C66.3968 16.6805 66.5876 17.2297 66.5876 18.0984C66.5876 18.5697 66.4903 19.0255 66.2916 19.4462L66.2955 19.4423Z" fill="#2B4877"/>
<path d="M75.4691 33.38C75.3405 32.7412 75.06 32.0127 74.6121 31.1596C74.2108 30.3961 73.7356 29.5742 73.198 28.7211C72.6877 27.907 72.1658 27.1084 71.6477 26.3449C71.1452 25.6087 70.7362 25.001 70.4051 24.5063L70.3622 24.4479C70.3388 24.4206 70.3233 24.3973 70.3116 24.3817C71.2698 23.7039 72.0801 22.843 72.7189 21.8146C73.424 20.6889 73.7785 19.3333 73.7785 17.779C73.7785 16.0806 73.4162 14.5926 72.6955 13.3539C71.9515 12.0723 70.7556 11.0906 69.143 10.4284C67.6276 9.80906 65.5943 9.49353 63.1051 9.49353C61.508 9.49353 60.2069 9.58702 59.2448 9.7701C58.1268 9.98435 57.2971 10.3544 56.7167 10.8998C56.109 11.4685 55.7273 12.2631 55.587 13.2604C55.3416 15.0717 55.1975 16.8909 55.1585 18.6672C55.1196 20.3967 55.1001 22.0367 55.1001 23.5403C55.1001 25.0439 55.1352 26.6955 55.2014 28.5303C55.2676 30.3923 55.4 32.1919 55.587 33.8903C55.7545 35.2459 56.2298 36.2314 56.9933 36.8235C57.7139 37.3845 58.6098 37.6688 59.6499 37.6688C60.764 37.6688 61.6599 37.2559 62.2364 36.469C62.7467 35.7757 63.0077 34.9576 63.0077 34.0344C63.0077 32.8541 62.9921 31.8452 62.9688 31.035C62.9415 30.252 62.9142 29.5353 62.887 28.8808C62.8597 28.2459 62.848 27.533 62.848 26.7579C62.848 26.7345 62.848 26.715 62.848 26.6955C62.8558 26.6955 62.8636 26.6955 62.8675 26.6955C63.0817 26.6955 63.1869 26.7228 63.222 26.7345C63.2765 26.7929 63.4674 27.0227 63.8335 27.7005C64.1958 28.3238 64.6711 29.1847 65.2865 30.3299C65.8864 31.4518 66.6928 32.9243 67.7523 34.8252C68.1847 35.6276 68.7067 36.2976 69.3104 36.8196C70.0155 37.4312 70.8998 37.7428 71.9359 37.7428C73.1162 37.7428 74.0667 37.3221 74.7601 36.4963C75.4496 35.6705 75.6911 34.6226 75.4691 33.3761V33.38ZM74.3394 36.1496C73.7551 36.8469 72.9448 37.2014 71.932 37.2014C71.0322 37.2014 70.2687 36.9365 69.6649 36.4106C69.1118 35.9315 68.6288 35.3121 68.2314 34.5681C67.1758 32.671 66.3655 31.1986 65.7657 30.0767C65.1463 28.9198 64.6672 28.055 64.3049 27.4318C63.8296 26.5553 63.6076 26.3411 63.5492 26.2982C63.4791 26.2437 63.296 26.1541 62.8675 26.1541C62.4974 26.1541 62.4039 26.2281 62.4039 26.2281C62.3377 26.3372 62.2988 26.5202 62.2988 26.7579C62.2988 27.533 62.3105 28.2537 62.3377 28.9003C62.365 29.5508 62.3923 30.2676 62.4195 31.0506C62.4468 31.8569 62.4585 32.858 62.4585 34.0305C62.4585 34.8369 62.2364 35.5458 61.7963 36.1418C61.3171 36.7885 60.5965 37.1196 59.646 37.1196C58.6955 37.1196 57.9476 36.8742 57.3244 36.3872C56.6777 35.8886 56.2726 35.0239 56.1246 33.8163C55.9376 32.1335 55.8091 30.3494 55.7428 28.503C55.6766 26.6838 55.6455 25.0127 55.6455 23.5364C55.6455 22.06 55.6649 20.3928 55.7039 18.6749C55.7428 16.9181 55.887 15.1185 56.1246 13.3266C56.2492 12.4579 56.5726 11.7723 57.0867 11.2932C57.5892 10.8219 58.3294 10.4946 59.3422 10.2999C60.2732 10.1207 61.5392 10.0311 63.1012 10.0311C65.5202 10.0311 67.4835 10.331 68.9326 10.927C70.4323 11.5425 71.5386 12.4462 72.2203 13.6226C72.8903 14.7757 73.2292 16.1741 73.2292 17.7712C73.2292 19.2203 72.902 20.4824 72.2515 21.5186C71.6165 22.5314 70.8102 23.3767 69.848 24.0272C69.8168 24.0506 69.7779 24.0934 69.7467 24.1402C69.7467 24.1402 69.7312 24.1674 69.7312 24.2492C69.7312 24.3934 69.7545 24.4791 69.7701 24.5219C69.8013 24.6037 69.8558 24.6894 69.9298 24.779L69.9571 24.818C70.2726 25.2932 70.6816 25.9009 71.188 26.641C71.7022 27.4006 72.2203 28.1953 72.7306 29.0016C73.2565 29.8391 73.7278 30.6493 74.1212 31.4051C74.5458 32.2114 74.8107 32.8892 74.9276 33.4813C75.1185 34.5564 74.9159 35.4485 74.3355 36.1457L74.3394 36.1496Z" fill="#2B4877"/>
<path d="M59.65 36.5781C58.8554 36.5781 58.1932 36.3717 57.6634 35.9626C57.1336 35.5536 56.8025 34.8174 56.6701 33.7579C56.4831 32.0867 56.3584 30.3338 56.2922 28.4913C56.226 26.6488 56.1948 25.001 56.1948 23.5442C56.1948 22.0873 56.2143 20.4434 56.2533 18.6944C56.2922 16.9454 56.4324 15.1847 56.6701 13.4084C56.7752 12.6683 57.0401 12.0956 57.4647 11.6983C57.8893 11.301 58.5515 11.0166 59.4514 10.8452C60.3512 10.6738 61.5705 10.5881 63.1091 10.5881C65.4658 10.5881 67.3434 10.8725 68.7341 11.4412C70.1247 12.0099 71.1336 12.8319 71.7569 13.907C72.3801 14.9821 72.6918 16.2715 72.6918 17.7829C72.6918 19.1346 72.3918 20.2876 71.7958 21.242C71.1998 22.1964 70.4519 22.9793 69.5482 23.587C69.443 23.6649 69.3573 23.7584 69.2911 23.8636C69.2249 23.9688 69.1898 24.1012 69.1898 24.2609C69.1898 24.4479 69.2171 24.6037 69.2677 24.7362C69.3223 24.8686 69.4002 25.001 69.5053 25.1335C69.8248 25.6087 70.2338 26.2203 70.7363 26.9604C71.2388 27.7044 71.7491 28.4835 72.2672 29.3054C72.7853 30.1274 73.241 30.9142 73.6383 31.6699C74.0357 32.4256 74.285 33.0684 74.394 33.5982C74.5538 34.498 74.394 35.2342 73.9188 35.8029C73.4436 36.3717 72.7775 36.656 71.9322 36.656C71.1648 36.656 70.5259 36.4379 70.0234 36.0016C69.5209 35.5653 69.0807 35.0005 68.7107 34.311C67.6784 32.4568 66.8565 30.9571 66.2449 29.8196C65.6333 28.6822 65.1464 27.794 64.7764 27.1552C64.4063 26.4657 64.1063 26.0372 63.8804 25.8619C63.6545 25.6905 63.3156 25.6048 62.8676 25.6048C62.3924 25.6048 62.0846 25.71 61.9522 25.9243C61.8198 26.1385 61.7535 26.4151 61.7535 26.7579C61.7535 27.5525 61.7691 28.2771 61.7925 28.9237C61.8198 29.5742 61.8431 30.2871 61.8704 31.0701C61.8977 31.853 61.9093 32.8386 61.9093 34.0305C61.9093 34.72 61.7224 35.316 61.3523 35.8185C60.9823 36.321 60.4135 36.5742 59.6422 36.5742L59.65 36.5781ZM63.1091 21.7913C64.3011 21.7913 65.2282 21.6199 65.8904 21.2732C66.5526 20.9304 67.0162 20.4707 67.2811 19.902C67.546 19.3333 67.6784 18.7295 67.6784 18.0945C67.6784 16.848 67.3278 15.9871 66.6228 15.5119C65.9216 15.0367 64.7608 14.7951 63.1442 14.7951C62.6417 14.7951 62.2716 14.8497 62.0301 14.9549C61.7925 15.06 61.6328 15.3405 61.5549 15.7885C61.477 16.2403 61.4341 16.9688 61.4341 17.9738C61.4341 19.1385 61.4653 19.9955 61.5354 20.5369C61.6016 21.0784 61.7535 21.4251 61.9912 21.5692C62.2288 21.7133 62.5988 21.7874 63.1052 21.7874L63.1091 21.7913Z" fill="#B4D9EB"/>
<path d="M86.1931 14.4562C87.9577 14.4562 89.2587 14.1875 90.0651 13.6538C90.8091 13.1591 91.1714 12.602 91.1714 11.9437C91.1714 11.0322 90.9065 10.3973 90.3611 9.99992C89.769 9.56754 88.8341 9.3494 87.5837 9.3494C86.0645 9.3494 85.5971 9.52079 85.4685 9.5948C85.2737 9.70388 85.1452 10.0817 85.1062 10.631C85.079 11.0751 85.0556 11.5425 85.0283 12.0333C85.0011 12.5047 84.9894 13.0344 84.9894 13.6148C84.9894 14.1953 85.1062 14.3238 85.1062 14.3277C85.1062 14.3277 85.3049 14.4601 86.1931 14.4601V14.4562ZM85.5737 12.0567C85.5971 11.5698 85.6243 11.1023 85.6516 10.6621C85.675 10.3077 85.7412 10.1207 85.7762 10.0506C85.897 10.0077 86.345 9.89085 87.5837 9.89085C88.7017 9.89085 89.5509 10.0778 90.0417 10.4362C90.2949 10.6193 90.626 10.9777 90.626 11.9398C90.626 12.2359 90.5364 12.6838 89.7651 13.198C89.0601 13.6655 87.8252 13.9109 86.1931 13.9109C85.8814 13.9109 85.675 13.8953 85.5464 13.8758C85.5386 13.8096 85.5347 13.7239 85.5347 13.6109C85.5347 13.0383 85.5464 12.5163 85.5737 12.0567Z" fill="#2B4877"/>
<path d="M91.0585 20.3889C90.112 19.8669 88.4759 19.6021 86.1932 19.6021C85.2427 19.6021 85.0324 19.7345 85.0246 19.7423C84.9973 19.7657 84.9116 19.9332 84.9116 20.3694C84.9116 20.9615 84.9233 21.5575 84.9506 22.134L85.0285 23.9649C85.0558 24.6583 85.1648 25.0049 85.2505 25.1763C85.3284 25.3322 85.5271 25.4412 85.8387 25.4997C86.2906 25.5854 87.0112 25.6282 87.9851 25.6282C89.3757 25.6282 90.4742 25.3555 91.2494 24.8102C91.9739 24.3038 92.3284 23.552 92.3284 22.5158C92.3284 21.542 91.9272 20.868 91.0624 20.3889H91.0585ZM90.9378 24.3622C90.2522 24.8374 89.2589 25.079 87.9851 25.079C86.8204 25.079 86.2283 25.0127 85.94 24.9582C85.8153 24.9348 85.753 24.9076 85.7258 24.892C85.6829 24.7907 85.6011 24.518 85.5777 23.9337L85.4998 22.1029C85.4726 21.5342 85.4609 20.9499 85.4609 20.3655C85.4609 20.2915 85.4609 20.2331 85.4687 20.1825C85.6089 20.163 85.8426 20.1435 86.201 20.1435C88.9239 20.1435 90.2054 20.533 90.8014 20.8642C91.4909 21.2459 91.787 21.7367 91.787 22.5119C91.787 23.3728 91.5182 23.9571 90.9417 24.3583L90.9378 24.3622Z" fill="#2B4877"/>
<path d="M97.8831 18.8619C97.1781 17.9114 96.2588 17.1752 95.133 16.6649C95.9199 16.1079 96.547 15.4145 97.0028 14.5965C97.5442 13.6265 97.8169 12.4657 97.8169 11.1452C97.8169 9.82463 97.4897 8.51968 96.847 7.34328C96.1809 6.12013 95.0629 5.13459 93.532 4.41395C92.0634 3.72447 90.0651 3.37778 87.5838 3.37778C85.6555 3.37778 84.0896 3.51412 82.9249 3.7829C81.616 4.08674 80.6227 4.61651 79.9683 5.35663C79.3294 6.07728 78.9087 7.03164 78.7179 8.18468C78.527 9.32602 78.3868 10.6933 78.305 12.2437C78.2232 13.7629 78.1842 15.4963 78.1842 17.3895C78.1842 19.493 78.2232 21.3511 78.305 22.9092C78.3868 24.4985 78.5231 25.8814 78.714 27.0072C78.8425 27.8797 79.1152 28.6315 79.5203 29.2431C79.9527 29.8936 80.5915 30.4078 81.4213 30.7701C82.1536 31.0895 83.1002 31.3193 84.2376 31.4518C85.3089 31.5764 86.6644 31.6388 88.2577 31.6388C90.7468 31.6388 92.8114 31.2492 94.3968 30.4741C96.025 29.6833 97.2404 28.6393 98.0117 27.3772C98.7791 26.1229 99.1647 24.7673 99.1647 23.3494C99.1647 21.5303 98.7323 20.0227 97.8754 18.8658L97.8831 18.8619ZM97.552 27.089C96.8392 28.2615 95.6978 29.2314 94.1631 29.9793C92.6516 30.7156 90.665 31.0895 88.2616 31.0895C86.6878 31.0895 85.3556 31.0272 84.3038 30.9064C83.2209 30.7818 82.325 30.5675 81.6433 30.2676C80.911 29.9482 80.3539 29.5002 79.9761 28.9354C79.6138 28.3939 79.3723 27.7161 79.2554 26.9254C79.0685 25.8113 78.9321 24.444 78.8542 22.8781C78.7763 21.3277 78.7334 19.4813 78.7334 17.3856C78.7334 15.5002 78.7724 13.7784 78.8542 12.267C78.936 10.74 79.0723 9.39614 79.2593 8.27038C79.4346 7.21862 79.8125 6.35774 80.3812 5.71501C80.9577 5.06058 81.8575 4.58924 83.0534 4.31267C84.1753 4.05168 85.7023 3.91924 87.5877 3.91924C89.9872 3.91924 91.9115 4.25034 93.3061 4.90477C94.7318 5.57477 95.7641 6.4824 96.3756 7.60037C96.9755 8.69497 97.2794 9.88696 97.2794 11.1413C97.2794 12.3956 97.0301 13.4395 96.5353 14.3277C96.0406 15.2119 95.3239 15.9404 94.4085 16.4896C94.241 16.6065 94.0968 16.7078 93.9722 16.7935C94.0501 16.8246 94.1475 16.8636 94.276 16.9025C95.6082 17.3661 96.6717 18.1335 97.4508 19.1852C98.2337 20.2448 98.6311 21.6432 98.6311 23.3455C98.6311 24.6582 98.2688 25.9165 97.5559 27.089H97.552Z" fill="#2B4877"/>
<path d="M88.2616 30.5442C86.6995 30.5442 85.3985 30.4857 84.3662 30.365C83.3339 30.2442 82.4964 30.0455 81.8614 29.769C81.2265 29.4924 80.7474 29.1146 80.4318 28.6354C80.1124 28.1602 79.9021 27.5642 79.7969 26.8474C79.6099 25.7334 79.4775 24.4011 79.3996 22.8508C79.3217 21.3004 79.2788 19.4774 79.2788 17.3856C79.2788 15.5041 79.3178 13.8096 79.3996 12.2982C79.4814 10.7868 79.6099 9.47404 79.7969 8.36386C79.9566 7.40949 80.2877 6.64989 80.7902 6.07727C81.2927 5.50854 82.0874 5.09563 83.1742 4.84633C84.261 4.59313 85.7296 4.46848 87.5877 4.46848C89.9171 4.46848 91.7479 4.78011 93.0724 5.40337C94.3968 6.02663 95.3395 6.84855 95.8926 7.86914C96.4496 8.88973 96.7262 9.98434 96.7262 11.1491C96.7262 12.3138 96.5003 13.2642 96.0523 14.0706C95.6005 14.8808 94.9499 15.5353 94.1046 16.0378C93.8397 16.2247 93.6294 16.3689 93.4697 16.474C93.31 16.5792 93.2321 16.7 93.2321 16.8324C93.2321 17.0467 93.5242 17.2453 94.1046 17.4284C95.3239 17.853 96.2899 18.5464 97.0067 19.5163C97.7234 20.4824 98.0779 21.7601 98.0779 23.3533C98.0779 24.5725 97.7468 25.7256 97.0846 26.8124C96.4224 27.8992 95.3706 28.7951 93.9254 29.4963C92.4803 30.1975 90.591 30.5481 88.2616 30.5481V30.5442ZM87.985 26.1696C89.4964 26.1696 90.6884 25.8658 91.5609 25.2542C92.4335 24.6466 92.8737 23.7311 92.8737 22.5119C92.8737 21.2926 92.3556 20.4785 91.3233 19.9098C90.2911 19.341 88.581 19.0567 86.197 19.0567C85.4023 19.0567 84.8998 19.1424 84.6856 19.3138C84.4713 19.4852 84.3662 19.8358 84.3662 20.3655C84.3662 20.9771 84.3818 21.5731 84.4051 22.1535C84.4324 22.7378 84.4558 23.3455 84.483 23.9804C84.5103 24.6154 84.6038 25.0945 84.7596 25.41C84.9193 25.7295 85.2426 25.932 85.7335 26.0255C86.2243 26.119 86.9722 26.1658 87.9811 26.1658L87.985 26.1696ZM86.1931 15.0016C88.0746 15.0016 89.4652 14.7016 90.369 14.1056C91.2688 13.5097 91.7207 12.789 91.7207 11.9398C91.7207 10.853 91.374 10.0583 90.6884 9.55584C89.9989 9.05334 88.9666 8.80014 87.5877 8.80014C86.3684 8.80014 85.5737 8.90531 85.2037 9.11956C84.8336 9.33381 84.6194 9.82073 84.5687 10.592C84.5415 11.0439 84.5142 11.5113 84.4908 12.0021C84.4636 12.493 84.4519 13.0305 84.4519 13.6109C84.4519 14.1913 84.557 14.5731 84.7713 14.7445C84.9855 14.9159 85.4608 15.0016 86.2009 15.0016H86.1931Z" fill="#B4D9EB"/>
<path d="M110.512 21.0667C110.469 19.6137 110.395 18.4568 110.282 17.631C110.255 17.4401 110.239 17.2687 110.22 17.109C110.138 16.3416 110.052 15.5431 109.246 15.1457C109.036 15.0406 108.814 14.9899 108.58 14.9899C108.062 14.9899 107.665 15.247 107.345 15.4574C107.045 15.6521 106.85 15.7729 106.617 15.7729C106.379 15.7729 106.165 15.6288 105.916 15.4613C105.6 15.2548 105.21 14.9938 104.692 14.9938C104.466 14.9938 104.244 15.0445 104.038 15.1457C103.224 15.5392 103.138 16.3728 103.06 17.109C103.045 17.2765 103.025 17.4635 102.998 17.6661C102.889 18.4841 102.803 19.6293 102.749 21.0745C102.698 22.4846 102.671 24.3466 102.671 26.606C102.671 28.8653 102.698 30.6572 102.749 32.1374C102.803 33.6488 102.885 34.8564 102.994 35.7328C103.119 36.7534 103.306 37.4429 103.574 37.8948C104.19 38.9348 105.273 39.5075 106.621 39.5075C108.549 39.5075 109.367 38.4791 109.667 37.8948C109.955 37.404 110.158 36.6989 110.286 35.7406C110.395 34.9031 110.473 33.7306 110.512 32.2543C110.551 30.7974 110.57 28.8964 110.57 26.606C110.57 24.3155 110.551 22.5002 110.512 21.0667ZM109.967 32.2387C109.928 33.6956 109.85 34.8486 109.745 35.6705C109.628 36.5548 109.449 37.1897 109.195 37.6182C108.888 38.2181 108.175 38.9621 106.621 38.9621C105.148 38.9621 104.408 38.2298 104.046 37.6182C103.82 37.2365 103.652 36.6015 103.539 35.6666C103.43 34.8057 103.348 33.6137 103.298 32.1179C103.247 30.6455 103.22 28.7913 103.22 26.606C103.22 24.4206 103.247 22.4963 103.298 21.094C103.352 19.6722 103.434 18.5425 103.543 17.7401C103.57 17.5297 103.59 17.3349 103.609 17.1636C103.68 16.4819 103.742 15.8976 104.283 15.6327C104.416 15.5703 104.556 15.5353 104.7 15.5353C105.055 15.5353 105.343 15.7262 105.623 15.9131C105.919 16.1079 106.223 16.3105 106.621 16.3144C107.033 16.3144 107.349 16.1079 107.653 15.9131C107.937 15.7262 108.233 15.5353 108.592 15.5353C108.74 15.5353 108.884 15.5703 109.016 15.6366C109.554 15.9014 109.612 16.4585 109.69 17.1674C109.706 17.3272 109.725 17.5063 109.752 17.705C109.862 18.5114 109.936 19.6488 109.974 21.0823C110.013 22.5119 110.033 24.3739 110.033 26.606C110.033 28.838 110.013 30.7818 109.974 32.2387H109.967Z" fill="#2B4877"/>
<path d="M109.421 21.0979C109.382 19.6761 109.308 18.5659 109.203 17.779C109.078 16.8402 109.106 16.2949 108.767 16.1274C108.233 15.8664 107.703 16.8753 106.605 16.8636C105.53 16.8519 105.031 15.8742 104.513 16.1274C104.166 16.2949 104.205 16.8597 104.077 17.8141C103.972 18.6048 103.89 19.7033 103.839 21.1174C103.785 22.5314 103.761 24.3622 103.761 26.6098C103.761 28.8575 103.789 30.6182 103.839 32.1023C103.894 33.5865 103.972 34.7512 104.077 35.6004C104.182 36.4496 104.33 37.03 104.513 37.3416C104.938 38.0584 105.639 38.4167 106.62 38.4167C107.653 38.4167 108.354 38.0584 108.728 37.3416C108.938 36.9832 109.098 36.4028 109.203 35.6004C109.308 34.7979 109.382 33.6761 109.421 32.227C109.46 30.7779 109.48 28.9081 109.48 26.6098C109.48 24.3116 109.46 22.5236 109.421 21.1018V21.0979Z" fill="#B4D9EB"/>
<path d="M130.597 5.60983C130.254 5.06448 129.685 4.66715 128.855 4.39447C128.197 4.18022 127.293 4.0322 126.093 3.9465C124.976 3.8647 123.468 3.82574 121.622 3.82574C119.775 3.82574 118.311 3.86859 117.189 3.9465C115.989 4.0322 115.085 4.18022 114.427 4.39447C113.585 4.67104 113.017 5.07616 112.689 5.6371C112.405 6.12402 112.261 6.70833 112.261 7.37833C112.261 8.57811 112.635 9.43899 113.367 9.94539C113.975 10.3622 114.664 10.5764 115.416 10.5764H117.863V12.1697C117.863 12.9487 117.855 13.8641 117.843 14.9198C117.831 15.8781 117.82 16.887 117.808 17.9426L117.765 21.7796C117.75 22.9365 117.746 23.9999 117.746 24.9738V27.2993C117.746 28.3666 117.894 29.2158 118.198 29.8936C118.536 30.6493 119.035 31.2025 119.674 31.5453C120.254 31.853 120.936 32.0088 121.696 32.0088C122.455 32.0088 123.141 31.8491 123.702 31.5297C124.309 31.183 124.781 30.626 125.104 29.8742C125.388 29.2003 125.529 28.3589 125.529 27.3032C125.529 26.715 125.521 25.9359 125.509 24.9621C125.497 23.9999 125.49 22.9443 125.49 21.799C125.49 20.6538 125.474 19.493 125.451 18.2776C125.423 17.1402 125.412 16.0183 125.412 14.9432C125.412 13.868 125.404 12.9487 125.392 12.1619C125.381 11.4334 125.373 10.9114 125.373 10.5881H127.897C128.649 10.5881 129.338 10.3778 129.946 9.96097C130.682 9.45457 131.056 8.5898 131.056 7.39391C131.056 6.71222 130.9 6.11623 130.593 5.62152L130.597 5.60983ZM129.642 9.49742C129.128 9.8519 128.544 10.0311 127.901 10.0311H125.237C124.972 10.0311 124.894 10.0856 124.886 10.0895C124.886 10.0895 124.827 10.1869 124.827 10.518C124.827 10.8491 124.831 11.3828 124.847 12.158C124.863 12.9409 124.866 13.868 124.866 14.9315C124.866 15.9949 124.878 17.1285 124.905 18.2776C124.933 19.4774 124.944 20.6577 124.944 21.7873C124.944 22.917 124.952 23.996 124.964 24.9582C124.976 25.9281 124.983 26.7072 124.983 27.2915C124.983 28.2771 124.859 29.0483 124.602 29.6521C124.329 30.291 123.935 30.7623 123.433 31.0467C122.954 31.3193 122.37 31.4557 121.696 31.4557C121.022 31.4557 120.433 31.3193 119.931 31.0545C119.397 30.774 118.984 30.3027 118.696 29.6638C118.423 29.06 118.291 28.2848 118.291 27.2954V24.9699C118.291 23.9999 118.299 22.9404 118.311 21.7835L118.349 18.1607C118.361 17.0272 118.377 15.9482 118.388 14.9237C118.4 13.868 118.408 12.9487 118.408 12.1697V10.5219C118.408 10.2492 118.377 10.1207 118.357 10.07C118.318 10.0584 118.225 10.035 118.042 10.035H115.42C114.777 10.035 114.193 9.85579 113.679 9.50132C113.102 9.10399 112.806 8.39113 112.806 7.38223C112.806 6.80961 112.923 6.31489 113.161 5.91367C113.418 5.47349 113.885 5.14628 114.594 4.91645C115.214 4.71389 116.075 4.57755 117.228 4.49185C118.334 4.41005 119.81 4.3711 121.622 4.3711C123.433 4.3711 124.948 4.41005 126.055 4.49185C127.208 4.57366 128.068 4.71389 128.688 4.91256C129.389 5.14238 129.864 5.4657 130.133 5.89809C130.386 6.30321 130.515 6.80182 130.515 7.37833C130.515 8.38724 130.223 9.10009 129.642 9.49742Z" fill="#2B4877"/>
<path d="M121.699 30.9103C121.115 30.9103 120.613 30.7974 120.188 30.5714C119.763 30.3455 119.432 29.9676 119.195 29.4379C118.957 28.9081 118.836 28.1913 118.836 27.2915V24.966C118.836 23.9999 118.844 22.9404 118.856 21.7873C118.868 20.6343 118.883 19.4696 118.895 18.2893C118.91 17.109 118.922 15.991 118.934 14.9315C118.945 13.8719 118.953 12.9526 118.953 12.1696V10.5219C118.953 10.1246 118.895 9.85189 118.774 9.70776C118.653 9.56363 118.408 9.48962 118.038 9.48962H115.416C114.886 9.48962 114.407 9.34549 113.987 9.05334C113.562 8.76118 113.352 8.20414 113.352 7.38222C113.352 6.90698 113.445 6.50576 113.628 6.19023C113.811 5.87081 114.193 5.62151 114.762 5.43453C115.331 5.25145 116.168 5.11511 117.267 5.0372C118.365 4.95929 119.818 4.91644 121.618 4.91644C123.417 4.91644 124.909 4.9554 126.012 5.0372C127.11 5.11511 127.944 5.25145 128.516 5.43453C129.085 5.62151 129.471 5.87081 129.669 6.19023C129.868 6.50965 129.969 6.90698 129.969 7.38222C129.969 8.20414 129.755 8.76118 129.334 9.05334C128.91 9.34549 128.435 9.48962 127.905 9.48962H125.24C124.894 9.48962 124.648 9.56363 124.504 9.70776C124.356 9.85189 124.286 10.1246 124.286 10.5219C124.286 10.8413 124.29 11.3906 124.305 12.1696C124.321 12.9526 124.325 13.8719 124.325 14.9315C124.325 15.991 124.337 17.1129 124.364 18.2893C124.391 19.4696 124.403 20.6343 124.403 21.7873C124.403 22.9404 124.411 23.9999 124.422 24.966C124.434 25.932 124.442 26.7072 124.442 27.2915C124.442 28.1913 124.329 28.9081 124.103 29.4379C123.877 29.9676 123.565 30.3455 123.168 30.5714C122.771 30.7974 122.28 30.9103 121.699 30.9103Z" fill="#B4D9EB"/>
<path d="M149.407 30.3884C147.892 30.3884 146.385 30.3961 144.885 30.4078C143.86 30.4156 142.91 30.4234 142.03 30.4273C142.03 30.4273 142.033 30.4195 142.037 30.4156C142.368 29.9677 142.844 29.3249 143.463 28.4952C144.086 27.6616 144.912 26.5553 145.956 25.1647C147.226 23.4156 148.301 21.9393 149.178 20.7317C150.062 19.5125 150.771 18.4685 151.293 17.6193C151.826 16.7467 152.224 15.9754 152.473 15.3366C152.746 14.6315 152.886 13.9498 152.886 13.3149C152.886 12.6176 152.769 11.9866 152.543 11.4412C152.259 10.7673 151.698 10.2375 150.864 9.87138C150.183 9.57144 149.217 9.36109 147.908 9.22865C146.692 9.10789 145.06 9.04556 143.046 9.04556C141.165 9.04556 139.607 9.10789 138.422 9.22865C137.153 9.36109 136.202 9.55975 135.52 9.84022C134.714 10.1713 134.138 10.6232 133.803 11.188C133.491 11.7139 133.331 12.3099 133.331 12.9565C133.331 13.8252 133.639 14.5536 134.215 15.0639C134.772 15.5547 135.618 15.7963 136.806 15.7963H144.005C143.693 16.2559 143.257 16.8792 142.676 17.6855C141.936 18.7178 140.916 20.1357 139.618 21.9354C138.294 23.7662 137.199 25.2737 136.338 26.4696C135.474 27.6694 134.78 28.6744 134.274 29.4613C133.74 30.2988 133.37 30.9921 133.14 31.5842C132.895 32.2231 132.77 32.858 132.77 33.4657C132.77 34.1084 132.918 34.6928 133.214 35.2031C133.545 35.7796 134.118 36.2159 134.967 36.5353C135.657 36.7963 136.603 36.9871 137.865 37.1157C139.054 37.2364 140.635 37.2988 142.567 37.2988C144.499 37.2988 146.186 37.2286 147.417 37.0923C148.714 36.9482 149.688 36.7456 150.397 36.4691C151.238 36.1418 151.819 35.7056 152.173 35.1407C152.508 34.6071 152.68 33.9916 152.68 33.306C152.68 32.4724 152.43 31.7751 151.936 31.2376C151.41 30.6649 150.58 30.3884 149.404 30.3884H149.407ZM151.717 34.8486C151.425 35.3121 150.931 35.6744 150.202 35.9588C149.54 36.2197 148.609 36.4106 147.358 36.5509C146.147 36.6872 144.534 36.7534 142.567 36.7534C140.6 36.7534 139.089 36.6911 137.92 36.5703C136.708 36.4457 135.805 36.2665 135.158 36.0211C134.434 35.7484 133.951 35.39 133.686 34.9304C133.44 34.5058 133.316 34.0111 133.316 33.4657C133.316 32.9204 133.429 32.3555 133.651 31.779C133.865 31.222 134.219 30.5598 134.734 29.7534C135.228 28.9743 135.918 27.9771 136.779 26.7851C137.639 25.5931 138.734 24.0817 140.059 22.2548C141.356 20.4551 142.376 19.0372 143.116 18.0049C143.864 16.961 144.382 16.2209 144.694 15.7417C144.842 15.5158 144.936 15.36 144.994 15.2509H136.802C135.754 15.2509 135.022 15.0561 134.574 14.6549C134.11 14.2459 133.873 13.6733 133.873 12.9565C133.873 12.4073 134.005 11.9048 134.266 11.4646C134.539 11.0049 135.03 10.6271 135.723 10.3427C136.358 10.0817 137.258 9.89476 138.477 9.7701C139.646 9.64935 141.18 9.58702 143.046 9.58702C145.041 9.58702 146.657 9.64935 147.853 9.7701C149.1 9.89476 150.015 10.0934 150.642 10.37C151.34 10.6777 151.811 11.1101 152.037 11.6516C152.235 12.1307 152.337 12.6877 152.337 13.3149C152.337 13.8836 152.212 14.4991 151.963 15.1418C151.729 15.7534 151.343 16.4896 150.825 17.3349C150.311 18.1685 149.61 19.2047 148.734 20.4123C147.861 21.6199 146.786 23.0962 145.516 24.8452C144.476 26.2281 143.65 27.3344 143.027 28.168C142.404 29.0016 141.928 29.6443 141.601 30.0923C141.247 30.5714 141.067 30.8324 140.974 30.9727C142.139 30.9727 143.444 30.9649 144.893 30.9532C146.392 30.9415 147.896 30.9337 149.407 30.9337C150.424 30.9337 151.121 31.1557 151.538 31.6076C151.939 32.0439 152.138 32.6126 152.138 33.3099C152.138 33.8903 151.998 34.4084 151.717 34.8525V34.8486Z" fill="#2B4877"/>
<path d="M142.571 36.2081C140.662 36.2081 139.131 36.1496 137.978 36.0289C136.825 35.9081 135.953 35.7367 135.353 35.5108C134.757 35.2849 134.36 35.0005 134.161 34.6577C133.962 34.3149 133.861 33.9176 133.861 33.4657C133.861 32.9905 133.962 32.4919 134.161 31.9738C134.36 31.4557 134.702 30.813 135.193 30.0456C135.684 29.2782 136.358 28.2965 137.219 27.1046C138.08 25.9126 139.174 24.4012 140.499 22.5742C141.796 20.7707 142.816 19.3527 143.56 18.3205C144.301 17.2882 144.83 16.5247 145.15 16.0339C145.469 15.5431 145.625 15.247 145.625 15.1379C145.625 14.8458 145.465 14.7017 145.15 14.7017H136.802C135.902 14.7017 135.279 14.5497 134.932 14.2459C134.586 13.9421 134.414 13.5097 134.414 12.9526C134.414 12.5008 134.519 12.0995 134.734 11.7412C134.948 11.3828 135.345 11.0867 135.926 10.8452C136.51 10.6076 137.375 10.4284 138.528 10.3077C139.681 10.1869 141.184 10.1285 143.038 10.1285C145.025 10.1285 146.607 10.1869 147.787 10.3077C148.967 10.4284 149.84 10.6115 150.409 10.8647C150.977 11.1179 151.347 11.449 151.523 11.858C151.694 12.2709 151.78 12.754 151.78 13.3071C151.78 13.8096 151.667 14.355 151.441 14.9354C151.215 15.5197 150.853 16.2209 150.35 17.0428C149.848 17.8647 149.158 18.8775 148.282 20.0851C147.409 21.2926 146.334 22.769 145.064 24.518C144.032 25.897 143.202 27.0033 142.579 27.8369C141.956 28.6705 141.48 29.3132 141.149 29.7651C140.818 30.217 140.592 30.5325 140.475 30.7195C140.355 30.9064 140.296 31.0506 140.296 31.1558C140.296 31.3934 140.479 31.5141 140.853 31.5141C142.045 31.5141 143.389 31.5063 144.889 31.4946C146.385 31.483 147.888 31.4752 149.4 31.4752C150.249 31.4752 150.825 31.6427 151.129 31.9738C151.433 32.3049 151.585 32.749 151.585 33.306C151.585 33.7812 151.472 34.2019 151.246 34.5564C151.02 34.9148 150.603 35.2108 149.996 35.4524C149.384 35.69 148.484 35.877 147.292 36.0094C146.1 36.1418 144.523 36.2081 142.563 36.2081H142.571Z" fill="#B4D9EB"/>
<path d="M28.2104 11.0984C30.0842 11.0984 31.6033 9.5794 31.6033 7.70556C31.6033 5.83173 30.0842 4.31268 28.2104 4.31268C26.3365 4.31268 24.8175 5.83173 24.8175 7.70556C24.8175 9.5794 26.3365 11.0984 28.2104 11.0984Z" fill="#E07182"/>
<path d="M151.986 33.5397C152.756 33.5397 153.381 32.9154 153.381 32.1452C153.381 31.375 152.756 30.7506 151.986 30.7506C151.216 30.7506 150.592 31.375 150.592 32.1452C150.592 32.9154 151.216 33.5397 151.986 33.5397Z" fill="#E07182"/>
<path d="M106.617 13.7005C107.852 13.7005 108.853 12.6995 108.853 11.4646C108.853 10.2297 107.852 9.22864 106.617 9.22864C105.382 9.22864 104.381 10.2297 104.381 11.4646C104.381 12.6995 105.382 13.7005 106.617 13.7005Z" fill="#B4D9EB"/>
<path d="M167.618 13.8174C168.147 13.8174 168.576 13.3884 168.576 12.8591C168.576 12.3299 168.147 11.9009 167.618 11.9009C167.089 11.9009 166.66 12.3299 166.66 12.8591C166.66 13.3884 167.089 13.8174 167.618 13.8174Z" fill="#CAE3F0"/>
<path d="M172.285 16.4974C172.728 16.4974 173.087 16.1382 173.087 15.695C173.087 15.2518 172.728 14.8925 172.285 14.8925C171.842 14.8925 171.483 15.2518 171.483 15.695C171.483 16.1382 171.842 16.4974 172.285 16.4974Z" fill="#F2C7CF"/>
</svg>
